<svg xmlns="http://www.w3.org/2000/svg" data-name="Layer 1" viewBox="0 0 64 64" x="0px" y="0px"><title>tutorial, video tutorial, distance education,  online meeting, meeting, online education, distance</title><path d="M54,5H10a5.006,5.006,0,0,0-5,5V54a5.006,5.006,0,0,0,5,5H54a5.006,5.006,0,0,0,5-5V10A5.006,5.006,0,0,0,54,5ZM7,10a3,3,0,0,1,3-3H54a3,3,0,0,1,3,3v5H7ZM54,57H10a3,3,0,0,1-3-3V17H57V54A3,3,0,0,1,54,57Z"></path><path d="M51,10H41a1,1,0,0,0,0,2H51a1,1,0,0,0,0-2Z"></path><circle cx="12" cy="11" r="1.5"></circle><circle cx="17" cy="11" r="1.5"></circle><circle cx="22" cy="11" r="1.5"></circle><path d="M51,21H13a1,1,0,0,0-1,1V46a1,1,0,0,0,1,1H51a1,1,0,0,0,1-1V22A1,1,0,0,0,51,21ZM50,45H14V23H50Z"></path><path d="M27,42H37a1,1,0,0,0,1-1V38a4.985,4.985,0,0,0-2.6-4.358,5,5,0,1,0-6.8,0A4.985,4.985,0,0,0,26,38v3A1,1,0,0,0,27,42Zm5-15a3,3,0,1,1-3,3A3,3,0,0,1,32,27ZM28,38a3,3,0,0,1,3-3h2a3,3,0,0,1,3,3v2H28Z"></path><path d="M26,49a3,3,0,0,0-2.827,2.035A.9.9,0,0,0,23,51H13a1,1,0,0,0,0,2H23a.9.9,0,0,0,.173-.035A2.994,2.994,0,1,0,26,49Zm0,4a1,1,0,1,1,1-1A1,1,0,0,1,26,53Z"></path><path d="M51,51H33a1,1,0,0,0,0,2H51a1,1,0,0,0,0-2Z"></path></svg>